<mxfile host="Electron" agent="Mozilla/5.0 (Windows NT 10.0; Win64; x64) AppleWebKit/537.36 (KHTML, like Gecko) draw.io/26.0.16 Chrome/132.0.6834.196 Electron/34.2.0 Safari/537.36" version="26.0.16">
  <diagram id="C5RBs43oDa-KdzZeNtuy" name="Page-1">
    <mxGraphModel dx="1034" dy="511" grid="1" gridSize="10" guides="1" tooltips="1" connect="1" arrows="1" fold="1" page="1" pageScale="1" pageWidth="827" pageHeight="1169" math="0" shadow="0">
      <root>
        <mxCell id="WIyWlLk6GJQsqaUBKTNV-0" />
        <mxCell id="WIyWlLk6GJQsqaUBKTNV-1" parent="WIyWlLk6GJQsqaUBKTNV-0" />
        <mxCell id="zkfFHV4jXpPFQw0GAbJ--6" value="TextEditor" style="swimlane;fontStyle=0;align=center;verticalAlign=top;childLayout=stackLayout;horizontal=1;startSize=26;horizontalStack=0;resizeParent=1;resizeLast=0;collapsible=1;marginBottom=0;rounded=0;shadow=0;strokeWidth=1;" parent="WIyWlLk6GJQsqaUBKTNV-1" vertex="1">
          <mxGeometry x="50" y="260" width="225" height="130" as="geometry">
            <mxRectangle x="130" y="380" width="160" height="26" as="alternateBounds" />
          </mxGeometry>
        </mxCell>
        <mxCell id="zkfFHV4jXpPFQw0GAbJ--7" value="- content: string" style="text;align=left;verticalAlign=top;spacingLeft=4;spacingRight=4;overflow=hidden;rotatable=0;points=[[0,0.5],[1,0.5]];portConstraint=eastwest;" parent="zkfFHV4jXpPFQw0GAbJ--6" vertex="1">
          <mxGeometry y="26" width="225" height="26" as="geometry" />
        </mxCell>
        <mxCell id="zkfFHV4jXpPFQw0GAbJ--9" value="" style="line;html=1;strokeWidth=1;align=left;verticalAlign=middle;spacingTop=-1;spacingLeft=3;spacingRight=3;rotatable=0;labelPosition=right;points=[];portConstraint=eastwest;" parent="zkfFHV4jXpPFQw0GAbJ--6" vertex="1">
          <mxGeometry y="52" width="225" height="8" as="geometry" />
        </mxCell>
        <mxCell id="zkfFHV4jXpPFQw0GAbJ--11" value="+ TextEditor(content:string)&#xa;+ SetContent(newContent:string)&#xa;+ Save(): Memento&#xa;+ Restore(memento: Memento):Â " style="text;align=left;verticalAlign=top;spacingLeft=4;spacingRight=4;overflow=hidden;rotatable=0;points=[[0,0.5],[1,0.5]];portConstraint=eastwest;" parent="zkfFHV4jXpPFQw0GAbJ--6" vertex="1">
          <mxGeometry y="60" width="225" height="70" as="geometry" />
        </mxCell>
        <mxCell id="xFPTnjrnKdsw5o3IxvJM-7" value="Caretaker" style="swimlane;fontStyle=0;align=center;verticalAlign=top;childLayout=stackLayout;horizontal=1;startSize=26;horizontalStack=0;resizeParent=1;resizeLast=0;collapsible=1;marginBottom=0;rounded=0;shadow=0;strokeWidth=1;" parent="WIyWlLk6GJQsqaUBKTNV-1" vertex="1">
          <mxGeometry x="730" y="260" width="210" height="128" as="geometry">
            <mxRectangle x="130" y="380" width="160" height="26" as="alternateBounds" />
          </mxGeometry>
        </mxCell>
        <mxCell id="xFPTnjrnKdsw5o3IxvJM-8" value="- history: Stack&lt;Memento&gt;&#xa;- editor:TextEditor" style="text;align=left;verticalAlign=top;spacingLeft=4;spacingRight=4;overflow=hidden;rotatable=0;points=[[0,0.5],[1,0.5]];portConstraint=eastwest;" parent="xFPTnjrnKdsw5o3IxvJM-7" vertex="1">
          <mxGeometry y="26" width="210" height="44" as="geometry" />
        </mxCell>
        <mxCell id="xFPTnjrnKdsw5o3IxvJM-9" value="" style="line;html=1;strokeWidth=1;align=left;verticalAlign=middle;spacingTop=-1;spacingLeft=3;spacingRight=3;rotatable=0;labelPosition=right;points=[];portConstraint=eastwest;" parent="xFPTnjrnKdsw5o3IxvJM-7" vertex="1">
          <mxGeometry y="70" width="210" height="8" as="geometry" />
        </mxCell>
        <mxCell id="xFPTnjrnKdsw5o3IxvJM-10" value="+ Caretaker(editor:TextEditor)&#xa;+ Save()&#xa;+Undo()" style="text;align=left;verticalAlign=top;spacingLeft=4;spacingRight=4;overflow=hidden;rotatable=0;points=[[0,0.5],[1,0.5]];portConstraint=eastwest;" parent="xFPTnjrnKdsw5o3IxvJM-7" vertex="1">
          <mxGeometry y="78" width="210" height="50" as="geometry" />
        </mxCell>
        <mxCell id="xFPTnjrnKdsw5o3IxvJM-11" value="TextEditorMemento" style="swimlane;fontStyle=0;align=center;verticalAlign=top;childLayout=stackLayout;horizontal=1;startSize=26;horizontalStack=0;resizeParent=1;resizeLast=0;collapsible=1;marginBottom=0;rounded=0;shadow=0;strokeWidth=1;" parent="WIyWlLk6GJQsqaUBKTNV-1" vertex="1">
          <mxGeometry x="330" y="278" width="306" height="110" as="geometry">
            <mxRectangle x="130" y="380" width="160" height="26" as="alternateBounds" />
          </mxGeometry>
        </mxCell>
        <mxCell id="xFPTnjrnKdsw5o3IxvJM-12" value="- content: string" style="text;align=left;verticalAlign=top;spacingLeft=4;spacingRight=4;overflow=hidden;rotatable=0;points=[[0,0.5],[1,0.5]];portConstraint=eastwest;" parent="xFPTnjrnKdsw5o3IxvJM-11" vertex="1">
          <mxGeometry y="26" width="306" height="24" as="geometry" />
        </mxCell>
        <mxCell id="xFPTnjrnKdsw5o3IxvJM-13" value="" style="line;html=1;strokeWidth=1;align=left;verticalAlign=middle;spacingTop=-1;spacingLeft=3;spacingRight=3;rotatable=0;labelPosition=right;points=[];portConstraint=eastwest;" parent="xFPTnjrnKdsw5o3IxvJM-11" vertex="1">
          <mxGeometry y="50" width="306" height="8" as="geometry" />
        </mxCell>
        <mxCell id="xFPTnjrnKdsw5o3IxvJM-14" value="+ Memento(content: string)&#xa;+ GetState(): string" style="text;align=left;verticalAlign=top;spacingLeft=4;spacingRight=4;overflow=hidden;rotatable=0;points=[[0,0.5],[1,0.5]];portConstraint=eastwest;" parent="xFPTnjrnKdsw5o3IxvJM-11" vertex="1">
          <mxGeometry y="58" width="306" height="42" as="geometry" />
        </mxCell>
        <mxCell id="xFPTnjrnKdsw5o3IxvJM-15" value="" style="endArrow=block;dashed=1;endFill=0;endSize=12;html=1;rounded=0;exitX=1;exitY=0.5;exitDx=0;exitDy=0;entryX=0;entryY=0.5;entryDx=0;entryDy=0;" parent="WIyWlLk6GJQsqaUBKTNV-1" source="zkfFHV4jXpPFQw0GAbJ--11" target="xFPTnjrnKdsw5o3IxvJM-14" edge="1">
          <mxGeometry width="160" relative="1" as="geometry">
            <mxPoint x="280" y="330" as="sourcePoint" />
            <mxPoint x="295" y="260" as="targetPoint" />
          </mxGeometry>
        </mxCell>
        <mxCell id="xFPTnjrnKdsw5o3IxvJM-17" value="" style="endArrow=open;html=1;endSize=12;startArrow=diamondThin;startSize=14;startFill=0;edgeStyle=orthogonalEdgeStyle;align=left;verticalAlign=bottom;rounded=0;entryX=1;entryY=0.5;entryDx=0;entryDy=0;exitX=0;exitY=0.5;exitDx=0;exitDy=0;" parent="WIyWlLk6GJQsqaUBKTNV-1" source="xFPTnjrnKdsw5o3IxvJM-8" target="xFPTnjrnKdsw5o3IxvJM-14" edge="1">
          <mxGeometry x="-1" y="3" relative="1" as="geometry">
            <mxPoint x="560" y="200" as="sourcePoint" />
            <mxPoint x="588" y="115" as="targetPoint" />
          </mxGeometry>
        </mxCell>
        <mxCell id="-ufmBMJxS3k-8OEPkzCv-0" value="" style="endArrow=none;dashed=1;html=1;rounded=0;" edge="1" parent="WIyWlLk6GJQsqaUBKTNV-1">
          <mxGeometry width="50" height="50" relative="1" as="geometry">
            <mxPoint x="30" y="240" as="sourcePoint" />
            <mxPoint x="670" y="240" as="targetPoint" />
          </mxGeometry>
        </mxCell>
        <mxCell id="-ufmBMJxS3k-8OEPkzCv-1" value="" style="endArrow=none;dashed=1;html=1;rounded=0;" edge="1" parent="WIyWlLk6GJQsqaUBKTNV-1">
          <mxGeometry width="50" height="50" relative="1" as="geometry">
            <mxPoint x="30" y="400" as="sourcePoint" />
            <mxPoint x="670" y="400" as="targetPoint" />
          </mxGeometry>
        </mxCell>
        <mxCell id="-ufmBMJxS3k-8OEPkzCv-2" value="" style="endArrow=none;dashed=1;html=1;rounded=0;" edge="1" parent="WIyWlLk6GJQsqaUBKTNV-1">
          <mxGeometry width="50" height="50" relative="1" as="geometry">
            <mxPoint x="670.35" y="400" as="sourcePoint" />
            <mxPoint x="670" y="240" as="targetPoint" />
          </mxGeometry>
        </mxCell>
        <mxCell id="-ufmBMJxS3k-8OEPkzCv-3" value="" style="endArrow=none;dashed=1;html=1;rounded=0;" edge="1" parent="WIyWlLk6GJQsqaUBKTNV-1">
          <mxGeometry width="50" height="50" relative="1" as="geometry">
            <mxPoint x="30.350000000000023" y="400" as="sourcePoint" />
            <mxPoint x="30" y="240" as="targetPoint" />
          </mxGeometry>
        </mxCell>
        <mxCell id="-ufmBMJxS3k-8OEPkzCv-4" value="Clase anidada" style="text;html=1;align=center;verticalAlign=middle;whiteSpace=wrap;rounded=0;" vertex="1" parent="WIyWlLk6GJQsqaUBKTNV-1">
          <mxGeometry x="40" y="210" width="110" height="30" as="geometry" />
        </mxCell>
      </root>
    </mxGraphModel>
  </diagram>
</mxfile>
